<?xml version="1.0" standalone="no"?>
<!DOCTYPE svg PUBLIC "-//W3C//DTD SVG 20010904//EN"
 "http://www.w3.org/TR/2001/REC-SVG-20010904/DTD/svg10.dtd">
<svg version="1.0" xmlns="http://www.w3.org/2000/svg"
 width="300.000000pt" height="300.000000pt" viewBox="0 0 300.000000 300.000000"
 preserveAspectRatio="xMidYMid meet">
<metadata>
Created by potrace 1.10, written by Peter Selinger 2001-2011
</metadata>
<g transform="translate(0.000000,300.000000) scale(0.100000,-0.100000)"
fill="#000000" stroke="none">
<path d="M1455 2338 c-11 -7 -34 -11 -51 -9 -18 1 -38 -4 -47 -13 -9 -9 -32
-16 -52 -16 -35 0 -85 -35 -85 -60 0 -5 -10 -10 -22 -10 -14 -1 -46 -23 -82
-60 -56 -56 -59 -62 -59 -107 0 -29 -6 -55 -15 -66 -10 -11 -14 -32 -13 -60 2
-23 3 -49 2 -57 -1 -8 -3 -44 -5 -80 -2 -36 -9 -80 -15 -99 -6 -18 -13 -78
-17 -133 -6 -85 -9 -98 -23 -92 -37 15 -50 15 -78 0 -51 -26 -68 -75 -68 -201
0 -106 1 -113 37 -187 31 -65 41 -78 72 -89 35 -13 36 -15 36 -64 0 -68 22
-137 65 -209 41 -66 42 -64 -44 -92 -31 -10 -59 -23 -63 -29 -4 -5 -13 -10
-20 -10 -7 0 -14 -6 -14 -12 -1 -7 -2 -17 -3 -23 0 -5 -7 -10 -14 -10 -11 0
-36 -44 -41 -73 -1 -6 -5 -17 -9 -24 -4 -6 -3 -14 2 -17 5 -3 7 -15 4 -25 -3
-14 -20 -23 -54 -31 -27 -7 -49 -15 -49 -18 0 -10 117 -77 195 -112 169 -76
325 -111 506 -113 208 -3 267 4 434 50 106 30 364 154 365 175 0 4 -20 13 -45
19 -26 6 -50 20 -56 30 -6 13 -6 19 1 19 5 0 10 7 10 15 0 8 -4 15 -9 15 -4 0
-7 11 -6 25 2 14 -1 25 -6 25 -5 0 -9 8 -9 19 0 10 -9 21 -20 24 -12 3 -20 14
-20 26 0 13 -5 19 -14 15 -7 -3 -16 2 -20 11 -3 10 -13 15 -20 12 -8 -3 -17
-1 -19 6 -5 14 -47 -19 -47 -37 0 -6 4 -5 9 2 10 17 52 7 80 -19 25 -23 18
-47 -7 -27 -13 11 -14 11 -8 0 4 -7 2 -20 -6 -29 -12 -16 -11 -16 11 0 23 15
25 15 38 -1 14 -16 14 -16 9 2 -6 16 -4 17 10 6 9 -8 14 -23 11 -37 -2 -13 -1
-23 4 -23 4 0 6 -16 5 -35 -2 -20 1 -32 6 -28 6 3 7 -3 3 -17 -5 -16 -4 -20 4
-15 7 4 19 1 27 -6 12 -10 10 -15 -18 -32 -18 -11 -38 -20 -44 -21 -7 -1 -18
-7 -26 -14 -8 -6 -18 -9 -21 -6 -3 3 -22 -7 -43 -22 -34 -26 -36 -27 -25 -6
13 24 1 30 -21 9 -24 -23 -138 -78 -169 -82 -24 -3 -30 -1 -27 13 4 22 38 29
38 8 0 -12 12 -8 53 16 28 17 63 37 75 44 23 11 22 12 -15 11 -33 -2 -39 -5
-35 -19 3 -14 -2 -18 -21 -18 -14 0 -27 -5 -29 -12 -3 -7 -12 -9 -22 -5 -18 7
-18 8 -1 27 10 11 24 20 30 20 7 0 18 6 24 14 21 25 -31 6 -58 -21 -26 -28
-38 -25 -21 6 6 12 8 25 5 30 -3 5 1 12 7 14 10 4 10 6 0 6 -21 1 -72 -29 -71
-42 0 -9 2 -9 6 1 2 6 9 12 14 12 10 0 -29 -82 -55 -115 -23 -30 -19 -14 9 39
14 26 23 52 19 57 -10 17 25 59 49 59 25 0 85 34 104 59 7 9 13 11 13 5 0 -6
-9 -23 -20 -37 -11 -14 -20 -33 -20 -43 0 -10 12 1 31 29 30 46 31 67 4 67 -8
0 -25 11 -39 25 -14 14 -31 25 -38 25 -10 0 -10 -2 0 -9 11 -7 11 -9 -2 -14
-8 -3 -21 0 -28 7 -7 7 -18 11 -25 9 -6 -2 -14 0 -17 5 -3 5 25 22 62 39 127
57 215 142 253 243 16 42 20 45 58 51 34 4 53 17 102 65 149 147 181 392 51
396 -16 1 -35 -2 -42 -7 -9 -6 -10 -3 -1 12 30 57 71 222 71 286 0 16 9 40 20
54 11 14 20 33 20 41 0 9 9 35 21 59 16 34 19 52 14 81 -5 20 -7 49 -6 64 1
14 -2 29 -7 32 -5 3 -7 25 -5 49 6 48 -14 92 -47 102 -10 3 -23 19 -29 35 -6
18 -19 32 -34 36 -16 3 -28 15 -31 30 -8 31 -63 66 -95 60 -16 -2 -30 3 -40
15 -9 10 -23 19 -30 21 -8 2 -26 16 -39 31 -18 21 -33 28 -61 28 -71 0 -111 6
-127 20 -14 12 -32 13 -114 11 -62 -3 -107 5 -130 21 -28 20 -66 22 -95 5z
m91 -55 c18 -21 23 -23 35 -10 8 7 22 13 32 11 35 -5 64 -44 33 -44 -7 0 -20
-8 -27 -17 -12 -15 -12 -16 4 -10 10 4 29 7 41 7 15 0 22 6 23 21 3 29 16 42
48 42 28 0 61 -25 70 -54 9 -27 25 -23 25 6 0 28 17 33 34 9 10 -13 16 -13 39
-3 31 14 53 1 68 -39 6 -16 14 -22 25 -18 10 4 26 -3 41 -18 l25 -25 -31 12
c-24 9 -34 8 -43 -1 -9 -9 -7 -12 12 -12 26 0 60 -26 60 -47 0 -7 5 -13 11
-13 7 0 9 12 5 35 -6 32 -5 35 18 35 37 0 66 -36 66 -84 1 -38 2 -40 15 -22 8
10 12 23 9 28 -4 5 4 4 16 -4 17 -10 20 -20 16 -46 -4 -30 -3 -32 18 -26 17 4
30 -1 45 -17 24 -26 24 -29 11 -63 -7 -18 -14 -24 -27 -20 -11 3 -6 -5 12 -20
l30 -26 -18 -32 c-11 -19 -14 -35 -8 -41 5 -5 12 0 17 14 7 22 9 20 15 -16 6
-33 3 -45 -16 -71 -15 -20 -22 -39 -18 -52 3 -15 -3 -29 -23 -47 -21 -20 -23
-24 -8 -20 19 7 19 6 0 -9 -15 -12 -16 -16 -5 -16 11 0 12 -2 1 -9 -8 -4 -13
-12 -12 -17 5 -24 -13 -107 -45 -205 -19 -60 -42 -149 -50 -198 -12 -65 -36
-138 -89 -265 -41 -96 -83 -187 -95 -202 -12 -15 -47 -47 -79 -72 -70 -55
-235 -138 -241 -121 -2 7 -11 2 -22 -12 l-19 -24 0 28 c0 15 -4 27 -10 27 -5
0 -10 -7 -10 -15 0 -8 -4 -15 -10 -15 -5 0 -10 8 -10 18 0 21 -27 62 -41 62
-5 0 -9 -11 -9 -24 0 -14 -4 -28 -10 -31 -5 -3 -10 2 -10 12 0 10 -5 25 -11
33 -8 12 -9 9 -5 -13 4 -15 2 -27 -4 -27 -5 0 -10 13 -10 28 0 16 -3 31 -6 35
-12 12 -37 -7 -50 -37 l-13 -31 -1 37 c0 36 0 37 -29 27 -19 -7 -33 -21 -40
-41 -9 -25 -8 -28 3 -19 7 6 16 7 20 3 4 -4 7 -2 6 3 -5 25 2 27 24 6 16 -15
26 -19 31 -12 3 6 11 8 17 5 7 -5 9 -1 5 9 -3 10 -2 17 3 17 6 0 10 -9 10 -19
0 -11 10 -23 23 -27 33 -12 41 -11 53 4 8 12 14 9 28 -13 11 -17 23 -24 33
-21 9 4 17 -1 20 -14 5 -19 6 -19 24 3 22 26 24 12 5 -33 -8 -21 -16 -28 -21
-21 -5 9 -11 9 -23 -3 -10 -8 -37 -23 -62 -34 -25 -11 -51 -27 -59 -36 -12
-14 -10 -15 20 -10 19 4 42 11 51 15 9 5 24 9 33 9 28 0 76 41 94 79 16 36 16
37 59 28 23 -4 42 -11 42 -15 0 -4 -27 -40 -60 -79 -62 -74 -184 -183 -206
-183 -25 0 -194 141 -194 162 0 4 -18 26 -40 48 -22 22 -40 45 -40 50 0 23 34
7 77 -35 24 -25 48 -43 52 -40 5 2 17 -2 27 -10 20 -15 52 -19 79 -9 13 6 14
9 3 16 -10 7 -9 8 4 4 10 -3 17 -2 15 2 -1 4 2 8 7 9 10 2 26 24 26 37 0 5
-10 0 -22 -11 -13 -11 -33 -24 -45 -28 -20 -5 -23 -3 -23 19 0 14 -5 28 -11
32 -8 4 -9 -4 -4 -27 l6 -34 -40 42 c-23 23 -41 38 -41 33 0 -5 7 -16 16 -24
14 -15 14 -16 0 -16 -9 0 -16 3 -16 8 0 4 -14 22 -31 40 -24 26 -38 32 -70 32
-24 0 -38 -4 -34 -10 3 -5 2 -10 -4 -10 -5 0 -13 5 -16 10 -5 8 -11 7 -21 -1
-21 -17 -17 -27 9 -22 20 4 42 -19 65 -70 8 -16 -74 25 -89 45 -17 22 -49 19
-49 -4 0 -26 46 -66 87 -76 24 -5 41 -6 38 -2 -2 4 -19 10 -36 14 -31 6 -68
40 -69 64 0 8 13 0 30 -16 19 -20 45 -33 72 -37 48 -8 90 -28 49 -23 -15 2
-26 -3 -28 -12 -4 -13 -3 -13 6 0 8 12 12 9 21 -15 14 -40 33 -78 25 -52 -26
89 -7 92 28 5 27 -69 26 -86 -4 -49 -21 26 -25 21 -8 -12 10 -20 10 -20 -4 -7
-9 8 -25 38 -37 65 -19 46 -20 39 -3 -16 6 -22 6 -22 -25 1 -17 13 -33 29 -36
35 -6 18 -66 59 -66 46 0 -6 12 -21 27 -34 82 -69 88 -76 76 -88 -9 -9 -29 -2
-90 30 -91 49 -105 61 -76 61 11 0 26 -7 33 -15 17 -20 29 -19 24 3 -3 11 -16
18 -36 19 -39 3 -44 8 -28 28 7 9 10 18 7 22 -8 7 -46 -37 -47 -53 0 -6 10
-19 23 -27 18 -13 19 -16 5 -16 -9 -1 -20 4 -23 9 -4 6 -11 7 -17 4 -7 -4 -8
-2 -4 4 5 8 0 12 -14 12 -11 0 -28 4 -38 9 -9 6 -42 22 -74 36 -31 15 -59 29
-62 32 -11 11 15 31 34 26 18 -5 19 0 16 46 -1 28 1 51 4 51 4 0 8 12 7 26 0
14 5 30 10 35 6 6 9 -2 9 -22 -1 -19 5 -34 13 -37 9 -3 11 0 6 8 -5 9 -2 10
15 5 15 -5 20 -4 16 4 -4 6 -15 11 -25 11 -14 0 -17 6 -13 28 4 26 56 85 66
75 2 -2 14 0 25 7 12 6 20 7 19 3 -2 -4 2 -9 7 -10 6 -1 9 5 7 13 -2 8 5 17
15 20 10 3 26 10 37 15 14 8 21 6 34 -12 8 -12 30 -38 49 -57 34 -35 35 -44 6
-48 -8 -2 -29 -8 -46 -15 -29 -12 -29 -13 -7 -21 15 -5 26 -5 30 1 3 6 15 12
27 14 12 1 28 9 36 16 13 10 18 6 34 -26 14 -30 18 -34 21 -18 6 32 22 42 22
14 0 -13 4 -29 8 -36 4 -6 7 13 8 43 0 52 -1 53 -19 36 -18 -16 -22 -14 -87
54 -79 84 -141 171 -163 234 -25 70 -40 389 -22 482 7 40 16 123 20 183 5 101
13 159 31 255 3 19 6 50 5 68 -1 18 4 42 9 53 8 13 7 25 -2 42 -15 27 -11 68
8 83 7 6 10 15 6 19 -4 5 1 5 11 2 12 -5 16 -3 11 5 -4 6 -9 27 -11 47 -6 49
24 81 75 81 35 1 36 2 17 15 -17 13 -17 17 -5 29 13 12 21 12 53 1 40 -14 45
-11 22 15 -14 15 -13 20 11 45 22 24 30 27 65 21 30 -5 39 -3 39 8 0 20 27 28
49 14 15 -9 24 -7 45 10 31 24 52 20 82 -15z m-582 -849 c10 -10 16 -33 16
-62 l-1 -47 -23 45 c-12 25 -31 47 -41 49 -16 3 -14 -2 8 -29 27 -32 27 -32 8
-56 -27 -34 -46 -117 -32 -142 6 -11 8 -22 5 -25 -12 -11 27 -67 46 -67 17 0
20 -7 20 -40 0 -22 -4 -40 -8 -40 -17 0 -51 46 -78 104 -42 93 -39 255 7 304
23 26 51 28 73 6z m0 -214 c1 -79 -2 -110 -11 -110 -18 0 -41 39 -36 60 3 10
0 21 -6 24 -6 4 -11 14 -11 22 0 8 5 12 10 9 6 -4 10 7 10 25 0 33 27 96 38
86 3 -4 6 -56 6 -116z m1307 -21 c18 -18 21 -29 16 -73 -9 -87 -45 -164 -110
-233 -41 -43 -67 -63 -83 -63 -28 0 -28 1 -13 34 7 15 22 26 37 28 32 4 94 81
85 105 -4 9 -2 14 3 11 12 -8 16 66 4 97 -8 21 -5 28 23 49 22 18 27 26 16 26
-9 0 -31 -13 -49 -30 l-31 -29 6 32 c7 33 37 67 61 67 8 0 24 -10 35 -21z
m-71 -130 c0 -22 -5 -49 -10 -60 -8 -13 -7 -19 0 -19 16 0 -32 -68 -57 -79
-11 -5 -23 -7 -26 -5 -3 3 8 35 24 72 16 37 29 76 29 88 0 20 17 44 32 44 4 0
8 -18 8 -41z m-362 -671 c2 -11 -10 -24 -37 -37 -64 -33 -75 -28 -43 19 21 31
33 39 52 37 14 -1 26 -9 28 -19z m-257 -41 c-10 -9 -11 -8 -5 6 3 10 9 15 12
12 3 -3 0 -11 -7 -18z m189 -62 c0 -15 -51 -103 -66 -116 -20 -16 -19 -13 18
57 15 28 24 54 21 58 -4 3 1 6 10 6 10 0 17 -2 17 -5z m-743 -27 c-3 -8 -6 -5
-6 6 -1 11 2 17 5 13 3 -3 4 -12 1 -19z m639 -52 c-17 -38 -29 -54 -39 -51 -7
3 -26 1 -40 -4 -15 -6 -27 -8 -27 -5 0 8 124 123 128 119 2 -1 -8 -28 -22 -59z
m-276 -40 c32 -26 33 -29 10 -23 -14 4 -31 7 -37 7 -12 0 -53 69 -53 87 0 4
11 -3 23 -17 12 -14 38 -38 57 -54z"/>
<path d="M1410 2245 c-11 -13 -10 -14 4 -9 9 3 16 10 16 15 0 13 -6 11 -20 -6z"/>
<path d="M1595 2250 c-3 -5 -2 -10 4 -10 5 0 13 5 16 10 3 6 2 10 -4 10 -5 0
-13 -4 -16 -10z"/>
<path d="M1350 2236 c0 -2 7 -7 16 -10 8 -3 12 -2 9 4 -6 10 -25 14 -25 6z"/>
<path d="M1695 2215 c1 -15 8 -32 14 -38 10 -9 12 -4 9 22 -2 19 -8 36 -15 38
-7 3 -10 -6 -8 -22z"/>
<path d="M1379 2196 c-13 -6 -25 -20 -27 -31 -4 -19 -3 -19 20 3 30 27 38 27
66 2 l21 -20 11 20 c13 25 48 26 66 3 11 -15 13 -16 14 -2 0 8 -5 20 -12 27
-17 17 -67 15 -74 -3 -4 -10 -11 -12 -18 -7 -22 17 -44 20 -67 8z"/>
<path d="M1640 2180 c-9 -6 -10 -10 -3 -10 6 0 15 5 18 10 8 12 4 12 -15 0z"/>
<path d="M1400 2146 c0 -2 7 -7 16 -10 8 -3 12 -2 9 4 -6 10 -25 14 -25 6z"/>
<path d="M1770 2130 c0 -5 5 -10 10 -10 6 0 10 5 10 10 0 6 -4 10 -10 10 -5 0
-10 -4 -10 -10z"/>
<path d="M1705 2110 c27 -12 43 -12 25 0 -8 5 -22 9 -30 9 -10 0 -8 -3 5 -9z"/>
<path d="M1790 2090 c-9 -6 -10 -10 -3 -10 6 0 15 5 18 10 8 12 4 12 -15 0z"/>
<path d="M1114 2025 c18 -14 18 -16 3 -33 -28 -31 -22 -70 16 -92 17 -11 39
-17 47 -14 8 4 20 7 27 7 7 0 10 4 7 9 -9 14 23 8 36 -7 10 -12 9 -15 -4 -15
-9 0 -31 -8 -49 -17 -18 -9 -35 -16 -38 -16 -15 4 -47 -77 -52 -131 -3 -32
-11 -64 -18 -70 -9 -8 -10 -8 -4 3 5 9 4 12 -3 7 -10 -6 -32 -67 -32 -90 0 -4
15 14 34 42 21 29 38 71 44 103 16 81 28 106 62 124 57 30 132 37 263 25 309
-27 603 -107 680 -185 35 -36 40 -58 28 -131 -10 -67 9 -197 24 -160 5 11 4
38 -2 60 -11 41 -7 106 6 106 4 0 4 25 1 54 -5 42 -12 61 -33 80 -16 15 -24
26 -20 26 4 1 -23 16 -62 34 -60 29 -67 34 -47 40 13 5 29 3 37 -4 8 -6 22
-11 32 -10 35 4 43 0 44 -22 1 -13 5 -5 9 17 4 22 6 42 5 44 -2 1 -14 -4 -27
-13 -28 -20 -52 -20 -68 -1 -10 12 -15 12 -36 -2 -23 -14 -32 -13 -142 17 -64
18 -122 33 -129 34 -7 1 -16 6 -20 10 -4 5 8 6 27 2 68 -13 109 -12 98 1 -6 8
-16 10 -26 4 -9 -5 -25 -3 -41 6 -22 12 -31 13 -56 2 -35 -15 -37 -15 -95 -5
-71 12 -98 14 -222 22 -89 5 -115 10 -111 20 2 7 12 15 21 17 12 3 11 5 -5 6
-14 1 -24 -6 -28 -19 -8 -25 -13 -25 -45 -1 -19 15 -29 17 -45 9 -11 -6 -23
-15 -26 -20 -9 -14 -58 12 -65 34 -8 28 21 66 53 70 25 3 22 5 -22 20 -38 13
-45 13 -31 3z"/>
<path d="M2038 2003 c-10 -2 -18 -9 -18 -14 0 -5 11 -7 25 -3 30 7 55 -10 55
-38 0 -14 5 -18 16 -14 8 3 25 1 36 -5 15 -8 19 -18 16 -45 -4 -35 5 -46 16
-18 12 31 6 53 -20 73 -15 11 -30 18 -35 15 -5 -3 -9 0 -9 5 0 16 -38 51 -52
50 -7 -1 -21 -3 -30 -6z"/>
<path d="M1317 1993 c-2 -4 -1 -18 3 -29 7 -17 14 -20 36 -16 17 3 31 0 38
-10 6 -8 20 -18 30 -22 14 -5 11 1 -10 21 -16 15 -38 28 -48 28 -10 1 -25 10
-32 19 -6 9 -14 14 -17 9z"/>
<path d="M1477 1934 c-30 -26 -23 -33 9 -10 16 13 22 13 41 0 19 -12 27 -12
43 -2 20 13 35 38 23 38 -4 0 -15 -7 -24 -16 -17 -15 -21 -15 -42 -1 -21 14
-25 13 -50 -9z"/>
<path d="M1600 1900 c0 -5 6 -10 14 -10 7 0 26 -6 41 -14 29 -15 59 -11 49 6
-4 7 -9 6 -13 -1 -4 -7 -17 -4 -36 9 -33 22 -55 26 -55 10z"/>
<path d="M1863 1896 c4 -10 7 -20 7 -22 0 -2 14 -4 30 -4 19 0 30 -5 30 -14 0
-8 4 -17 9 -20 4 -3 6 6 3 19 -2 15 -11 25 -21 25 -9 0 -27 8 -41 17 -22 16
-23 16 -17 -1z"/>
<path d="M2141 1884 c0 -11 3 -14 6 -6 3 7 2 16 -1 19 -3 4 -6 -2 -5 -13z"/>
<path d="M1997 1829 c-9 -6 -22 -7 -27 -4 -14 9 -13 -3 2 -19 9 -10 15 -9 31
7 22 22 19 30 -6 16z"/>
<path d="M2160 1741 c0 -6 5 -13 10 -16 6 -3 10 1 10 9 0 9 -4 16 -10 16 -5 0
-10 -4 -10 -9z"/>
<path d="M2256 1715 c-21 -20 -31 -23 -46 -15 -29 15 -37 12 -13 -5 31 -22 47
-17 82 28 20 25 8 21 -23 -8z"/>
<path d="M1233 1538 c-28 -6 -59 -24 -90 -53 l-48 -45 50 27 c74 41 154 37
266 -11 97 -41 109 -43 109 -17 0 28 -41 57 -113 80 -83 26 -124 31 -174 19z
m217 -58 c8 -5 11 -10 5 -10 -5 0 -17 5 -25 10 -8 5 -10 10 -5 10 6 0 17 -5
25 -10z"/>
<path d="M1536 1393 c-6 -14 -5 -15 5 -6 7 7 10 15 7 18 -3 3 -9 -2 -12 -12z"/>
<path d="M1184 1390 c-17 -6 -43 -22 -58 -36 l-26 -27 27 -36 c14 -20 28 -38
30 -40 2 -3 35 -8 74 -12 39 -5 92 -15 119 -24 43 -14 52 -14 84 -1 20 8 36
22 36 31 0 41 -48 99 -106 128 -39 20 -140 29 -180 17z m56 -40 c-32 -32 -21
-90 17 -90 10 0 9 7 -4 28 l-17 27 25 -22 c25 -23 56 -32 44 -13 -3 6 1 10 9
10 8 0 20 8 25 18 13 22 14 3 1 -34 -7 -19 -17 -30 -30 -30 -11 0 -20 3 -20 6
0 3 -18 6 -39 6 -61 2 -86 11 -101 38 -11 21 -11 28 1 42 17 21 46 33 82 33
27 1 27 1 7 -19z m83 7 c12 11 97 -48 113 -78 8 -17 14 -32 12 -34 -19 -15
-52 -24 -77 -19 -37 8 -37 8 -11 34 24 24 26 53 5 70 -8 7 -15 9 -15 4 0 -5
-5 -2 -10 6 -9 13 -12 13 -21 -2 -14 -24 -49 -23 -49 0 0 26 10 33 30 22 10
-5 20 -7 23 -3z"/>
<path d="M1708 1390 c-25 -15 -22 -39 5 -44 12 -3 76 -7 142 -8 116 -3 122 -4
173 -35 28 -18 52 -29 52 -24 0 19 -84 91 -118 101 -56 16 -234 23 -254 10z"/>
<path d="M1815 1304 c17 -3 52 -9 78 -13 32 -6 45 -5 39 1 -6 6 -41 12 -79 13
-37 2 -54 1 -38 -1z"/>
<path d="M1642 1245 c-17 -38 -27 -190 -13 -199 8 -5 11 9 11 47 0 29 5 79 11
111 12 64 8 79 -9 41z"/>
<path d="M1713 1223 c-58 -17 -76 -42 -20 -27 17 5 73 9 123 9 83 0 96 -3 154
-32 71 -37 80 -39 80 -18 0 8 -32 30 -74 50 -63 30 -83 35 -142 34 -38 0 -93
-8 -121 -16z"/>
<path d="M1820 1141 c8 -5 51 -12 95 -15 50 -5 74 -4 65 2 -8 5 -51 12 -95 16
-49 4 -74 3 -65 -3z"/>
<path d="M1384 975 c-21 -32 -10 -61 27 -74 18 -6 27 -6 24 -1 -15 25 14 7 34
-21 19 -25 28 -30 50 -25 14 4 31 7 38 8 7 1 9 6 6 11 -3 6 11 6 37 2 31 -5
45 -4 51 6 12 20 11 67 -2 75 -7 4 -9 0 -5 -14 4 -12 2 -30 -3 -41 -9 -17 -15
-18 -40 -8 -23 9 -34 7 -55 -6 -24 -16 -67 -24 -53 -11 12 12 -52 56 -73 49
-26 -8 -37 17 -22 51 15 31 7 31 -14 -1z"/>
<path d="M1250 883 c-29 -11 -50 -36 -50 -60 0 -26 12 -30 30 -8 15 17 50 20
50 4 0 -8 5 -8 15 1 12 10 15 10 15 -4 0 -20 14 -21 30 -1 7 8 17 15 23 15 5
0 2 -9 -8 -20 -25 -28 -10 -25 29 5 18 14 38 25 44 25 7 0 12 4 12 8 0 15
-164 45 -190 35z m70 -35 c0 -4 -15 -7 -34 -5 -19 1 -32 5 -29 10 6 9 63 5 63
-5z"/>
<path d="M1422 824 c-23 -14 -42 -29 -42 -35 0 -5 11 -2 25 7 24 16 25 16 18
-2 -6 -19 -6 -19 15 0 12 10 19 22 17 26 -3 5 1 10 7 13 7 2 11 7 8 10 -3 3
-25 -5 -48 -19z"/>
<path d="M1540 803 c0 -17 5 -35 10 -38 6 -3 10 0 10 7 1 8 6 6 15 -6 11 -14
15 -16 15 -5 0 8 -11 28 -25 44 l-24 30 -1 -32z"/>
<path d="M1593 788 c13 -26 25 -40 29 -34 5 8 8 7 8 -1 0 -7 4 -13 10 -13 5 0
7 7 4 15 -4 8 -2 15 4 15 5 0 12 -6 15 -14 3 -8 17 -12 34 -10 18 2 36 -5 50
-18 28 -26 37 -19 28 22 -8 39 -61 66 -147 76 l-56 7 21 -45z m131 -19 c-2 -4
-11 -6 -19 -4 -50 16 -50 16 -36 25 16 9 63 -8 55 -21z"/>
<path d="M1241 812 c-17 -6 -13 -32 6 -32 9 0 44 -11 79 -25 93 -37 193 -55
310 -55 84 0 104 3 104 14 0 22 -19 30 -36 15 -11 -9 -42 -10 -117 -6 -115 7
-196 26 -279 66 -31 14 -61 25 -67 23z"/>
<path d="M1330 700 c0 -5 5 -10 11 -10 5 0 7 5 4 10 -3 6 -8 10 -11 10 -2 0
-4 -4 -4 -10z"/>
<path d="M1380 671 c0 -13 92 -41 136 -41 61 0 43 17 -30 28 -39 6 -80 14 -89
18 -9 3 -17 1 -17 -5z"/>
<path d="M1046 534 c-8 -21 -8 -39 1 -30 8 7 15 46 9 46 -2 0 -7 -7 -10 -16z"/>
<path d="M911 527 c2 -1 15 -11 28 -22 l24 -20 -12 23 c-6 12 -19 22 -28 22
-9 0 -14 -1 -12 -3z"/>
<path d="M1004 515 c-3 -8 -4 -20 -2 -27 3 -7 7 -1 10 15 6 29 1 36 -8 12z"/>
<path d="M1030 480 c-9 -6 -10 -10 -3 -10 6 0 15 5 18 10 8 12 4 12 -15 0z"/>
<path d="M1352 454 c-1 -29 3 -46 16 -55 15 -12 16 -12 5 1 -6 8 -13 33 -16
55 l-4 40 -1 -41z"/>
<path d="M890 435 c-11 -13 -10 -14 4 -9 9 3 16 10 16 15 0 13 -6 11 -20 -6z"/>
<path d="M1476 435 c-9 -26 -7 -32 5 -12 6 10 9 21 6 23 -2 3 -7 -2 -11 -11z"/>
<path d="M950 389 c-7 -11 -10 -23 -7 -25 2 -2 9 7 15 21 14 30 7 33 -8 4z"/>
<path d="M1537 403 c-4 -3 -7 -11 -7 -17 0 -6 5 -5 12 2 6 6 9 14 7 17 -3 3
-9 2 -12 -2z"/>
<path d="M1006 375 c-9 -26 -7 -32 5 -12 6 10 9 21 6 23 -2 3 -7 -2 -11 -11z"/>
<path d="M971 354 c0 -11 3 -14 6 -6 3 7 2 16 -1 19 -3 4 -6 -2 -5 -13z"/>
<path d="M890 351 c0 -6 4 -12 8 -15 5 -3 9 1 9 9 0 8 -4 15 -9 15 -4 0 -8 -4
-8 -9z"/>
<path d="M1055 350 c-3 -5 -1 -10 4 -10 6 0 11 5 11 10 0 6 -2 10 -4 10 -3 0
-8 -4 -11 -10z"/>
<path d="M1145 224 c40 -31 61 -37 33 -10 -15 14 -33 26 -40 26 -8 -1 -5 -7 7
-16z"/>
<path d="M897 1366 c-3 -7 -8 -35 -11 -62 -3 -27 -3 -40 0 -29 3 11 11 39 19
63 8 23 10 42 5 42 -4 0 -10 -6 -13 -14z"/>
<path d="M2241 1115 c0 -16 -4 -41 -6 -55 l-6 -25 11 25 c6 13 9 38 7 55 l-4
30 -2 -30z"/>
<path d="M1947 519 c7 -7 15 -10 18 -7 3 3 -2 9 -12 12 -14 6 -15 5 -6 -5z"/>
<path d="M1908 513 c7 -3 16 -2 19 1 4 3 -2 6 -13 5 -11 0 -14 -3 -6 -6z"/>
<path d="M1814 499 c-4 -7 -3 -10 4 -5 5 3 12 1 14 -6 3 -8 9 -8 24 0 10 6 14
12 7 12 -6 0 -18 3 -26 6 -8 3 -18 0 -23 -7z"/>
<path d="M1958 493 c7 -3 16 -2 19 1 4 3 -2 6 -13 5 -11 0 -14 -3 -6 -6z"/>
<path d="M1910 486 c0 -2 7 -7 16 -10 8 -3 12 -2 9 4 -6 10 -25 14 -25 6z"/>
<path d="M2060 475 c0 -8 4 -15 8 -15 5 0 9 7 9 15 0 8 -4 15 -9 15 -4 0 -8
-7 -8 -15z"/>
<path d="M2052 444 c10 -10 20 -16 22 -13 3 3 -5 11 -17 18 -21 13 -21 12 -5
-5z"/>
<path d="M2000 390 c14 -27 29 -34 23 -11 -3 11 -11 22 -19 25 -11 4 -12 2 -4
-14z"/>
<path d="M1956 385 c-9 -26 -7 -32 5 -12 6 10 9 21 6 23 -2 3 -7 -2 -11 -11z"/>
<path d="M1905 360 c-3 -5 -1 -10 4 -10 6 0 11 5 11 10 0 6 -2 10 -4 10 -3 0
-8 -4 -11 -10z"/>
<path d="M1800 319 c0 -5 5 -7 10 -4 6 3 10 8 10 11 0 2 -4 4 -10 4 -5 0 -10
-5 -10 -11z"/>
<path d="M1932 299 c2 -7 10 -15 17 -17 8 -3 12 1 9 9 -2 7 -10 15 -17 17 -8
3 -12 -1 -9 -9z"/>
</g>
</svg>
